<svg width="21" height="23" viewBox="0 0 21 23" fill="none" xmlns="http://www.w3.org/2000/svg">
<path d="M12.6528 9.34722V16.8819M8.34722 9.34722V16.8819M4.04166 5.04167V17.7431C4.04166 18.9487 4.04166 19.5512 4.27631 20.0117C4.48269 20.4167 4.81179 20.7467 5.21686 20.9531C5.67691 21.1875 6.27946 21.1875 7.48278 21.1875H13.5172C14.7205 21.1875 15.3222 21.1875 15.7823 20.9531C16.1873 20.7467 16.5175 20.4167 16.7239 20.0117C16.9583 19.5516 16.9583 18.9497 16.9583 17.7464V5.04167M4.04166 5.04167H6.19444M4.04166 5.04167H1.88889M16.9583 5.04167H14.8056M16.9583 5.04167H19.1111M6.19444 5.04167H14.8056M6.19444 5.04167C6.19444 4.0386 6.19444 3.53732 6.35831 3.14169C6.57681 2.61421 6.99562 2.19487 7.52311 1.97637C7.91873 1.8125 8.42052 1.8125 9.42361 1.8125H11.5764C12.5795 1.8125 13.081 1.8125 13.4766 1.97637C14.0041 2.19487 14.4231 2.61421 14.6416 3.14169C14.8054 3.53731 14.8056 4.0386 14.8056 5.04167" stroke="#EFEFEF" stroke-width="2" stroke-linecap="round" stroke-linejoin="round"/>
</svg>
