<svg width="90" height="90" viewBox="0 0 90 90" fill="none" xmlns="http://www.w3.org/2000/svg">
<path fill-rule="evenodd" clip-rule="evenodd" d="M36.0837 25.4355C37.7047 24.1467 37.9744 21.7877 36.6854 20.1665C35.3965 18.5453 33.0375 18.2759 31.4163 19.5648C17.7552 30.4254 15 44.5441 15 60.0001C15 66.2135 20.0368 71.2501 26.25 71.2501C32.4632 71.2501 37.5 66.2135 37.5 60.0001C37.5 53.7871 32.4632 48.7501 26.25 48.7501C25.1712 48.7501 24.1279 48.902 23.1404 49.1855C24.4358 39.7021 27.9652 31.8898 36.0837 25.4355ZM75 60.0001C75 66.2135 69.9634 71.2501 63.75 71.2501C57.5366 71.2501 52.5 66.2135 52.5 60.0001C52.5 44.5441 55.2551 30.4254 68.9164 19.5648C70.5375 18.2759 72.8966 18.5453 74.1855 20.1665C75.4744 21.7877 75.2047 24.1467 73.5836 25.4355C65.4652 31.8898 61.9357 39.7021 60.6405 49.1855C61.6279 48.902 62.6711 48.7501 63.75 48.7501C69.9634 48.7501 75 53.7871 75 60.0001Z" fill="#EFEFEF"/>
</svg>
