<svg width="294" height="30" viewBox="0 0 294 30" fill="none" xmlns="http://www.w3.org/2000/svg">
<path d="M13.92 0.5H13.5894L13.46 0.804151L1.53995 28.8042L1.24372 29.5H2H4.96H5.2903L5.4199 29.1962L7.7303 23.78H21.9497L24.2601 29.1962L24.3897 29.5H24.72H27.68H28.4373L28.1398 28.8036L16.1798 0.803595L16.0501 0.5H15.72H13.92ZM58.1837 29.5H58.6837V29V1V0.5H58.1837H55.4637H54.9637V1V22.6042L36.244 0.675369L36.0943 0.5H35.8637H33.9037H33.4037V1V29V29.5H33.9037H36.6237H37.1237V29V7.43613L55.8034 29.3246L55.9531 29.5H56.1838H58.1837ZM74.7394 29V29.5H75.2394H77.9594H78.4594V29V4.26H88.7594H89.2594V3.76V1V0.5H88.7594H64.4794H63.9794V1V3.76V4.26H64.4794H74.7394V29ZM97.775 29.5H98.275V29V1V0.5H97.775H95.055H94.555V1V29V29.5H95.055H97.775ZM127.229 0.5H126.949L126.802 0.739233L117.228 16.4027L107.615 0.738475L107.469 0.5H107.189H104.029H103.137L103.603 1.26087L115.369 20.5008V29V29.5H115.869H118.589H119.089V29V20.5008L130.856 1.26087L131.321 0.5H130.429H127.229ZM160.955 4.26H161.455V3.76V1V0.5H160.955H136.675H136.175V1V29V29.5H136.675H160.955H161.455V29V26.28V25.78H160.955H139.895V16.9H153.315H153.815V16.4V13.64V13.14H153.315H139.895V4.26H160.955ZM192.031 26.28V25.78H191.531H170.471V1V0.5H169.971H167.251H166.751V1V29V29.5H167.251H191.531H192.031V29V26.28ZM222.606 26.28V25.78H222.106H201.046V1V0.5H200.546H197.826H197.326V1V29V29.5H197.826H222.106H222.606V29V26.28ZM264.299 29.5H264.629L264.759 29.197L271.498 13.4723L278.199 29.196L278.329 29.5H278.659H280.459H280.789L280.919 29.1964L292.879 1.1964L293.176 0.5H292.419H289.459H289.129L288.999 0.803808L279.579 22.8863L271.959 5.04363L271.499 3.96691L271.039 5.04363L263.419 22.8863L253.999 0.803807L253.869 0.5H253.539H250.579H249.823L250.119 1.19585L262.039 29.1959L262.168 29.5H262.499H264.299ZM20.325 20.06H9.31692L14.8385 7.11762L20.325 20.06ZM250.065 15C250.065 7.00386 243.561 0.5 235.565 0.5C227.608 0.5 221.105 7.00479 221.105 15C221.105 22.9943 227.567 29.5 235.565 29.5C243.561 29.5 250.065 22.9961 250.065 15ZM235.565 25.78C229.642 25.78 224.825 20.965 224.825 15C224.825 9.07615 229.641 4.26 235.565 4.26C241.53 4.26 246.345 9.0773 246.345 15C246.345 20.9639 241.529 25.78 235.565 25.78Z" fill="#F0F0F0" stroke="black"/>
</svg>
