<svg viewBox="0 0 25 25" fill="none" xmlns="http://www.w3.org/2000/svg">
<path d="M20.5602 10.8261C20.532 11.3984 20.0979 12.1049 19.3983 12.7839V21.7316C19.3975 21.962 19.3067 22.1574 19.1533 22.3099C18.9992 22.4595 18.7993 22.548 18.5643 22.5495H3.98233C3.74888 22.548 3.5482 22.4594 3.3941 22.3099C3.24073 22.1574 3.15074 21.962 3.14996 21.7316V7.43259C3.15074 7.20296 3.24073 7.00686 3.3941 6.85427C3.5482 6.70471 3.74888 6.61624 3.98233 6.61472H11.7269C12.3533 5.79226 13.0834 4.94998 13.9105 4.17791C13.9143 4.17332 13.9173 4.16873 13.9212 4.16419H3.98233C3.0668 4.1634 2.2253 4.53191 1.62637 5.12092C1.02442 5.70994 0.649031 6.53391 0.649812 7.43264V21.7317C0.649031 22.6304 1.02442 23.4559 1.62637 24.0434C2.22525 24.6323 3.0668 25 3.98233 25H18.5644C19.4815 25 20.323 24.6323 20.9219 24.0433C21.5223 23.4558 21.8984 22.6303 21.8977 21.7316V9.93504C21.8977 9.93504 21.8916 9.92742 21.8817 9.91975C21.5025 10.2448 21.0607 10.5545 20.5602 10.8261Z"/>
<path d="M24.3192 0C24.3192 0 23.5532 1.14443 18.5499 2.83735C13.4481 4.56392 10.3078 11.5876 10.3078 11.5876C9.55175 13.0265 6.56328 19.0048 6.56328 19.0048C5.74008 20.549 7.24839 21.4615 8.1334 19.8669C9.82939 16.806 10.9242 14.0091 13.503 13.9297C17.265 13.8138 19.8376 10.5286 19.0282 10.6812C17.9631 11.145 15.6148 10.7163 16.998 10.5026C20.3183 10.2364 22.3645 7.74077 21.6977 7.57144C20.5205 8.02461 19.4226 7.59434 19.2075 7.4646C25.0677 6.752 24.3192 0 24.3192 0Z"/>
</svg>
