<svg viewBox="0 0 28 25" fill="none" xmlns="http://www.w3.org/2000/svg">
<path fill-rule="evenodd" clip-rule="evenodd" d="M14.8396 0.336412C14.3694 -0.112137 13.6306 -0.112137 13.1604 0.336412L3.42123 9.62794L0.377756 12.5316C-0.109077 12.996 -0.127827 13.7679 0.335876 14.2557C0.799459 14.7434 1.57007 14.7622 2.05702 14.2977L3.04348 13.3566V22.561C3.04348 23.908 4.13353 25 5.47826 25H11.5652H16.4348H22.5217C23.8664 25 24.9565 23.908 24.9565 22.561V13.3566L25.943 14.2977C26.4299 14.7622 27.2005 14.7434 27.6642 14.2557C28.1279 13.7679 28.1091 12.996 27.6222 12.5316L24.5787 9.62794L14.8396 0.336412ZM22.5217 11.0337V22.561H17.6522V16.4634C17.6522 14.4428 16.0171 12.8049 14 12.8049C11.9829 12.8049 10.3478 14.4428 10.3478 16.4634V22.561H5.47826V11.0337L14 2.90359L22.5217 11.0337ZM12.7826 22.561V16.4634C12.7826 15.7899 13.3276 15.2439 14 15.2439C14.6724 15.2439 15.2174 15.7899 15.2174 16.4634V22.561H12.7826Z" />
</svg>
