<svg viewBox="0 0 17 12" fill="none" xmlns="http://www.w3.org/2000/svg">
<path fill-rule="evenodd" clip-rule="evenodd" d="M0.944444 0C0.422847 0 0 0.38376 0 0.857143C0 1.33053 0.422847 1.71429 0.944444 1.71429H16.0556C16.5772 1.71429 17 1.33053 17 0.857143C17 0.38376 16.5772 0 16.0556 0H0.944444ZM3.77778 6C3.77778 5.5266 4.20062 5.14286 4.72222 5.14286H16.0556C16.5772 5.14286 17 5.5266 17 6C17 6.4734 16.5772 6.85714 16.0556 6.85714H4.72222C4.20062 6.85714 3.77778 6.4734 3.77778 6ZM9.44444 11.1429C9.44444 10.6695 9.86727 10.2857 10.3889 10.2857H16.0556C16.5772 10.2857 17 10.6695 17 11.1429C17 11.6163 16.5772 12 16.0556 12H10.3889C9.86727 12 9.44444 11.6163 9.44444 11.1429Z"/>
</svg>
