<svg width="19" height="19" viewBox="0 0 19 19" fill="none" xmlns="http://www.w3.org/2000/svg">
<path d="M9.72587 4.91138L1 13.6371V18H5.36294L14.0888 9.27424M9.72587 4.91138L12.8547 1.78248L12.8567 1.78062C13.2873 1.34992 13.5031 1.13419 13.7518 1.05339C13.9709 0.982205 14.2068 0.982205 14.426 1.05339C14.6744 1.13413 14.8899 1.34961 15.32 1.77971L17.2177 3.67734C17.6496 4.10929 17.8657 4.32536 17.9466 4.5744C18.0178 4.79346 18.0177 5.02943 17.9466 5.2485C17.8658 5.49736 17.6501 5.7131 17.2187 6.14443L17.2177 6.14536L14.0888 9.27424M9.72587 4.91138L14.0888 9.27424" stroke="#EFEFEF" stroke-linecap="round" stroke-linejoin="round"/>
</svg>
