<svg width="28" height="30" viewBox="0 0 28 30" fill="none" xmlns="http://www.w3.org/2000/svg">
<path fill-rule="evenodd" clip-rule="evenodd" d="M1.22883 1.12323C1.66821 0.788335 2.2622 0.739403 2.75047 0.997888L26.8338 13.7479C27.2976 13.9934 27.5876 14.4752 27.5876 14.9999C27.5876 15.5247 27.2976 16.0065 26.8338 16.252L2.75047 29.002C2.2622 29.2604 1.66821 29.2115 1.22883 28.8766C0.789449 28.5417 0.584839 27.9818 0.704689 27.4427L3.46973 14.9999L0.704689 2.55724C0.584839 2.01793 0.789449 1.45815 1.22883 1.12323ZM6.05737 16.4166L4.13605 25.0625L20.4673 16.4166H6.05737ZM20.4673 13.5833H6.05737L4.13605 4.93734L20.4673 13.5833Z" fill="#232323"/>
</svg>
