<svg width="28" height="29" viewBox="0 0 28 29" fill="none" xmlns="http://www.w3.org/2000/svg">
<path d="M26.263 11.8488L24.0169 11.3509C23.8419 10.7909 23.6126 10.2554 23.3501 9.74L24.5655 7.71612C25.0188 6.99075 25.248 5.925 24.5655 5.24075L23.3274 4.0035C22.6449 3.32013 21.4916 3.4435 20.7951 3.9265L18.8255 5.18125C18.3145 4.91612 17.7799 4.68862 17.2251 4.50925L16.7211 2.236C16.5706 1.40212 15.8418 0.5 14.8749 0.5H13.1249C12.1589 0.5 11.5665 1.41612 11.3749 2.25L10.8131 4.49612C10.2199 4.68512 9.65115 4.92663 9.10865 5.21275L7.08915 3.9265C6.39352 3.4435 5.2394 3.321 4.5569 4.0035L3.31877 5.24075C2.6354 5.925 2.86465 6.99075 3.31877 7.71525L4.59715 9.84587C4.3574 10.3289 4.14477 10.8285 3.98027 11.3509L1.73502 11.8488C0.901148 11.9984 -0.000976562 12.7281 -0.000976562 13.6941V15.4441C-0.000976562 16.411 0.915148 17.0034 1.74902 17.1941L4.02227 17.762C4.1789 18.2441 4.37577 18.707 4.59802 19.1559L3.31877 21.2891C2.86552 22.0136 2.63627 23.0802 3.31877 23.7636L4.5569 25.0009C5.2394 25.6851 6.39265 25.5609 7.08915 25.0788L9.11302 23.789C9.65815 24.0769 10.2304 24.321 10.828 24.5091L11.388 26.7482C11.5796 27.5821 12.172 28.4982 13.138 28.4982H14.888C15.8549 28.4982 16.5838 27.5953 16.7343 26.7614L17.2391 24.4829C17.7886 24.3053 18.3154 24.0812 18.8211 23.8196L20.7951 25.0779C21.4916 25.5609 22.6449 25.6834 23.3283 25L24.5664 23.7628C25.2489 23.0785 25.0196 22.0127 24.5664 21.2882L23.3501 19.2609C23.5943 18.7805 23.806 18.2809 23.9766 17.7611L26.2508 17.1932C27.0846 17.0016 28.0008 16.4101 28.0008 15.4432V13.6932C28.0008 12.7273 27.0986 11.9975 26.2639 11.847L26.263 11.8488ZM26.2508 15.3216C26.1764 15.375 26.0364 15.4485 25.8588 15.4896L22.6143 16.2999L22.3133 17.2195C22.1776 17.6343 22.0018 18.0542 21.7909 18.469L21.3516 19.3317L23.0658 22.1904C23.1751 22.3654 23.2259 22.522 23.2416 22.6147L22.0901 23.7645C21.979 23.7295 21.853 23.684 21.7918 23.642L18.9113 21.8054L18.0161 22.2682C17.5848 22.4923 17.142 22.6778 16.701 22.8204L15.7473 23.1284L15.0263 26.386C14.993 26.5601 14.8994 26.701 14.8355 26.7509H13.2605C13.2071 26.6765 13.1336 26.5365 13.0934 26.3589L12.2875 23.138L11.3548 22.8423C10.8744 22.6909 10.3949 22.4888 9.92852 22.2437L9.02902 21.7686L6.14765 23.6052C6.02952 23.6849 5.90352 23.7304 5.78977 23.7304L4.64265 22.6139C4.6584 22.5229 4.70565 22.3741 4.80102 22.221L6.5904 19.239L6.16427 18.3815C5.96565 17.9773 5.80815 17.5984 5.68565 17.2221L5.38552 16.3016L2.1734 15.4984C1.97127 15.4529 1.82515 15.3767 1.74902 15.3234V13.6959C1.74902 13.6959 1.75077 13.6967 1.7534 13.6967C1.78315 13.6967 1.92665 13.5944 2.04652 13.5725L5.34702 12.8419L5.64977 11.8767C5.77315 11.4839 5.94115 11.0744 6.16427 10.6255L6.5904 9.768L4.8194 6.81662C4.71002 6.64075 4.6584 6.48413 4.64352 6.39225L5.79415 5.2425C5.90615 5.27838 6.03127 5.32387 6.09165 5.365L9.0264 7.23575L9.92502 6.7615C10.3861 6.51825 10.8639 6.31787 11.3443 6.16475L12.2744 5.869L13.0724 2.67613C13.1188 2.474 13.1931 2.32788 13.2474 2.25175H14.874C14.8618 2.26925 14.9746 2.42238 14.9983 2.54838L15.7333 5.86812L16.6861 6.17613C17.1333 6.3205 17.5813 6.50863 18.0188 6.73525L18.9139 7.20075L21.7349 5.40438C21.853 5.32387 21.979 5.27925 22.0928 5.27925L23.2416 6.39575C23.2268 6.48675 23.1786 6.63725 23.0833 6.7895L21.3508 9.6735L21.7926 10.538C22.0315 11.0044 22.2126 11.4419 22.3483 11.8759L22.651 12.8419L25.8859 13.5594C26.0819 13.5953 26.2341 13.709 26.2656 13.7703L26.2508 15.3216ZM14.0113 9.24125C11.1054 9.24125 8.74115 11.6011 8.74115 14.5C8.74115 17.3989 11.1054 19.7588 14.0113 19.7588C16.9171 19.7588 19.2814 17.3989 19.2814 14.5009C19.2814 11.602 16.9171 9.24213 14.0113 9.24213V9.24125ZM13.9999 18C12.0705 18 10.4999 16.4303 10.4999 14.5C10.4999 12.5697 12.0696 11 13.9999 11C15.9301 11 17.4999 12.5697 17.4999 14.5C17.4999 16.4303 15.9301 18 13.9999 18Z" fill="#1F1F1F"/>
</svg>
