<svg width="25" height="25" viewBox="0 0 25 25" fill="none" xmlns="http://www.w3.org/2000/svg">
<path d="M23.4466 10.1334L21.4412 9.68889C21.285 9.18886 21.0803 8.7107 20.846 8.25052L21.9311 6.44337C22.3357 5.79567 22.5404 4.84405 21.9311 4.23308L20.8257 3.12832C20.2163 2.51813 19.1867 2.62829 18.5649 3.05957L16.8064 4.17995C16.3501 3.94322 15.8728 3.74008 15.3776 3.57991L14.9276 1.5501C14.7932 0.805519 14.1425 0 13.2792 0H11.7168C10.8544 0 10.3255 0.81802 10.1544 1.5626L9.65291 3.56819C9.12326 3.73695 8.61548 3.95259 8.13113 4.20808L6.32812 3.05957C5.70707 2.62829 4.67666 2.51891 4.06732 3.12832L2.96192 4.23308C2.35181 4.84405 2.55648 5.79568 2.96192 6.44259L4.10326 8.34505C3.88921 8.77633 3.69938 9.22245 3.55251 9.68889L1.54795 10.1334C0.803465 10.267 -0.00195312 10.9187 -0.00195312 11.7812V13.3438C-0.00195312 14.2071 0.815965 14.7361 1.56045 14.9064L3.59001 15.4135C3.72985 15.844 3.90562 16.2573 4.10404 16.6581L2.96192 18.5629C2.55726 19.2098 2.35259 20.1622 2.96192 20.7724L4.06732 21.8771C4.67666 22.4881 5.70628 22.3772 6.32812 21.9467L8.13504 20.795C8.62173 21.0521 9.13263 21.2701 9.66619 21.4381L10.1662 23.4374C10.3372 24.182 10.8661 25 11.7286 25H13.291C14.1542 25 14.8049 24.1937 14.9393 23.4491L15.3901 21.4146C15.8806 21.256 16.3509 21.056 16.8025 20.8224L18.5649 21.9459C19.1867 22.3772 20.2163 22.4866 20.8264 21.8764L21.9318 20.7716C22.5412 20.1606 22.3365 19.209 21.9318 18.5621L20.846 16.7518C21.0639 16.3229 21.253 15.8768 21.4053 15.4127L23.4356 14.9056C24.1801 14.7345 24.998 14.2064 24.998 13.343V11.7804C24.998 10.9179 24.1926 10.2663 23.4474 10.1319L23.4466 10.1334ZM23.4356 13.2344C23.3692 13.2821 23.2442 13.3477 23.0857 13.3844L20.189 14.1079L19.9202 14.9291C19.7992 15.2994 19.6421 15.6744 19.4539 16.0448L19.0617 16.8151L20.5921 19.3676C20.6897 19.5239 20.735 19.6637 20.7491 19.7465L19.721 20.7732C19.6218 20.7419 19.5093 20.7013 19.4546 20.6638L16.8829 19.0238L16.0838 19.4372C15.6986 19.6372 15.3033 19.8028 14.9096 19.9302L14.0581 20.2052L13.4144 23.1139C13.3847 23.2694 13.3011 23.3952 13.2441 23.4397H11.8379C11.7903 23.3733 11.7247 23.2483 11.6887 23.0897L10.9692 20.2138L10.1365 19.9497C9.7076 19.8145 9.2795 19.634 8.86312 19.4153L8.06004 18.991L5.48755 20.631C5.38209 20.7021 5.26959 20.7427 5.16804 20.7427L4.14388 19.7458C4.15794 19.6645 4.20013 19.5317 4.28528 19.395L5.88284 16.7323L5.50239 15.9666C5.32506 15.6057 5.18444 15.2674 5.07507 14.9314L4.80712 14.1095L1.93933 13.3922C1.75887 13.3516 1.62841 13.2836 1.56045 13.236V11.7828C1.56045 11.7828 1.56201 11.7835 1.56436 11.7835C1.59092 11.7835 1.71903 11.6921 1.82606 11.6726L4.77275 11.0202L5.04304 10.1584C5.15319 9.80764 5.30318 9.442 5.50239 9.04119L5.88284 8.27552L4.30168 5.6402C4.20403 5.48316 4.15794 5.3433 4.14466 5.26127L5.17194 4.23464C5.27194 4.26667 5.38365 4.3073 5.43755 4.34402L8.0577 6.01444L8.85999 5.59097C9.27169 5.37377 9.69822 5.19486 10.1271 5.05813L10.9575 4.79405L11.67 1.94309C11.7114 1.76261 11.7778 1.63213 11.8262 1.56416H13.2785C13.2675 1.57979 13.3683 1.71651 13.3894 1.82902L14.0456 4.79327L14.8963 5.06829C15.2955 5.1972 15.6955 5.36518 16.0861 5.56754L16.8853 5.98319L19.4039 4.37918C19.5093 4.3073 19.6218 4.26745 19.7234 4.26745L20.7491 5.26439C20.7358 5.34565 20.6928 5.48003 20.6077 5.61598L19.0609 8.19114L19.4554 8.96306C19.6687 9.37949 19.8304 9.77014 19.9515 10.1577L20.2218 11.0202L23.1099 11.6609C23.2849 11.6929 23.4208 11.7945 23.4489 11.8492L23.4356 13.2344ZM12.5082 7.80518C9.91383 7.80518 7.80303 9.91234 7.80303 12.5008C7.80303 15.0892 9.91383 17.1964 12.5082 17.1964C15.1026 17.1964 17.2134 15.0892 17.2134 12.5016C17.2134 9.91312 15.1026 7.80596 12.5082 7.80596V7.80518ZM12.498 15.626C10.7755 15.626 9.37324 14.2243 9.37324 12.5008C9.37324 10.7772 10.7747 9.37559 12.498 9.37559C14.2214 9.37559 15.6229 10.7772 15.6229 12.5008C15.6229 14.2243 14.2214 15.626 12.498 15.626Z" />
</svg>
