<svg width="33" height="33" viewBox="0 0 33 33" fill="none" xmlns="http://www.w3.org/2000/svg">
<path d="M32.105 16.1482C32.105 24.9603 24.9603 32.105 16.1482 32.105C7.33606 32.105 0.191406 24.9603 0.191406 16.1482C0.191406 7.33606 7.33606 0.191406 16.1482 0.191406C24.9603 0.191406 32.105 7.33606 32.105 16.1482Z" fill="url(#paint0_linear_164_632)"/>
<path opacity="0.05" d="M5.07329 15.7221C11.5797 12.774 19.2214 9.57551 20.3982 9.11276C22.9928 8.09233 24.1241 9.1351 23.947 10.7986C23.7292 12.8371 22.6968 18.769 22.0617 23.0191C21.6899 25.506 20.3431 26.2679 18.8233 25.3033C17.6704 24.5717 13.7067 21.9763 12.6639 21.0891C11.9531 20.4844 11.4576 19.8062 11.9618 19.1153C12.1094 18.9134 12.4868 18.5065 12.6966 18.3039C13.749 17.2842 13.607 17.0648 12.3344 17.9752C12.1828 18.0837 11.3036 18.7211 10.9422 18.9621C10.0566 19.5525 9.242 19.5844 7.86094 19.1153C6.7312 18.7315 5.64614 18.4355 4.96159 18.1395C4.01615 17.7302 3.65393 16.3651 5.07329 15.7221Z" fill="black"/>
<path opacity="0.07" d="M5.64527 15.8218C11.6865 13.1211 19.116 10.0263 20.2026 9.58828C22.8068 8.53673 23.765 9.16064 23.485 11.1927C23.2249 13.074 22.3018 18.8951 21.6547 22.7973C21.2733 25.0943 20.1596 25.6001 18.7091 24.6619C17.8004 24.0763 14.1431 21.6668 13.2559 20.9655C12.5697 20.4237 11.8588 19.7982 12.6894 18.8927C12.967 18.5903 14.5005 17.1103 15.647 16.0093C16.3116 15.3702 16.0746 15.0551 15.2728 15.604C13.8024 16.6117 11.3969 18.2065 10.9677 18.4962C10.1499 19.0467 9.38155 19.1791 8.04437 18.7586C6.99043 18.4267 5.97238 18.1052 5.44182 17.8986C4.25623 17.439 4.24027 16.4497 5.64527 15.8218Z" fill="black"/>
<path d="M6.21747 15.9224C11.7944 13.469 19.0108 10.4779 20.0073 10.0638C22.6203 8.98036 23.4221 9.1878 23.0224 11.5877C22.7351 13.3126 21.907 19.0228 21.2464 22.5771C20.8546 24.685 19.9754 24.9348 18.5936 24.0228C17.929 23.584 14.574 21.3652 13.8456 20.8442C13.181 20.3695 12.2643 19.7983 13.414 18.6733C13.8233 18.2728 16.5048 15.7117 18.5944 13.7187C18.868 13.457 18.5241 13.027 18.2082 13.2368C15.3918 15.1046 11.4872 17.6968 10.9901 18.0342C10.2394 18.5441 9.51813 18.7778 8.22404 18.406C7.24588 18.1252 6.29087 17.7901 5.91908 17.6625C4.48696 17.171 4.82684 16.5343 6.21747 15.9224Z" fill="white"/>
<defs>
<linearGradient id="paint0_linear_164_632" x1="4.86515" y1="4.86515" x2="27.4312" y2="27.4312" gradientUnits="userSpaceOnUse">
<stop stop-color="#33BEF0"/>
<stop offset="1" stop-color="#0A85D9"/>
</linearGradient>
</defs>
</svg>
