<svg width="39" height="39" viewBox="0 0 39 39" fill="none" xmlns="http://www.w3.org/2000/svg">
<path d="M35.105 19.1482C35.105 27.9603 27.9603 35.105 19.1482 35.105C10.3361 35.105 3.19141 27.9603 3.19141 19.1482C3.19141 10.3361 10.3361 3.19141 19.1482 3.19141C27.9603 3.19141 35.105 10.3361 35.105 19.1482Z" fill="url(#paint0_linear_92_1716)"/>
<path opacity="0.05" d="M8.07304 18.7221C14.5794 15.774 22.2211 12.5755 23.3979 12.1128C25.9925 11.0923 27.1239 12.1351 26.9467 13.7986C26.7289 15.8371 25.6965 21.769 25.0614 26.0191C24.6896 28.506 23.3429 29.2679 21.823 28.3033C20.6701 27.5717 16.7065 24.9763 15.6637 24.0891C14.9528 23.4844 14.4574 22.8062 14.9616 22.1153C15.1092 21.9134 15.4866 21.5065 15.6964 21.3039C16.7487 20.2842 16.6067 20.0648 15.3342 20.9752C15.1826 21.0837 14.3034 21.7211 13.942 21.9621C13.0563 22.5525 12.2418 22.5844 10.8607 22.1153C9.73095 21.7315 8.64589 21.4355 7.96135 21.1395C7.01591 20.7302 6.65369 19.3651 8.07304 18.7221Z" fill="black"/>
<path opacity="0.07" d="M8.64576 18.822C14.687 16.1214 22.1165 13.0265 23.2031 12.5885C25.8073 11.537 26.7655 12.1609 26.4854 14.193C26.2254 16.0743 25.3023 21.8953 24.6552 25.7976C24.2738 28.0945 23.1601 28.6004 21.7096 27.6621C20.8008 27.0765 17.1435 24.667 16.2563 23.9657C15.5702 23.424 14.8593 22.7985 15.6899 21.8929C15.9675 21.5906 17.501 20.1106 18.6475 19.0095C19.3121 18.3705 19.0751 18.0553 18.2733 18.6042C16.8029 19.6119 14.3974 21.2068 13.9681 21.4964C13.1504 22.0469 12.382 22.1794 11.0449 21.7589C9.99091 21.427 8.97287 21.1055 8.44231 20.8988C7.25672 20.4393 7.24076 19.4499 8.64576 18.822Z" fill="black"/>
<path d="M9.21723 18.9224C14.7941 16.469 22.0106 13.4779 23.0071 13.0638C25.62 11.9804 26.4218 12.1878 26.0221 14.5877C25.7349 16.3126 24.9067 22.0228 24.2461 25.5771C23.8544 27.685 22.9752 27.9348 21.5933 27.0228C20.9287 26.584 17.5738 24.3652 16.8454 23.8442C16.1808 23.3695 15.2641 22.7983 16.4137 21.6733C16.823 21.2728 19.5046 18.7117 21.5941 16.7187C21.8678 16.457 21.5239 16.027 21.208 16.2368C18.3916 18.1046 14.487 20.6968 13.9899 21.0342C13.2391 21.5441 12.5179 21.7778 11.2238 21.406C10.2456 21.1252 9.29063 20.7901 8.91883 20.6625C7.48671 20.171 7.82659 19.5343 9.21723 18.9224Z" fill="white"/>
<defs>
<linearGradient id="paint0_linear_92_1716" x1="7.86515" y1="7.86515" x2="30.4312" y2="30.4312" gradientUnits="userSpaceOnUse">
<stop stop-color="#33BEF0"/>
<stop offset="1" stop-color="#0A85D9"/>
</linearGradient>
</defs>
</svg>
