<svg width="161" height="161" viewBox="0 0 161 161" fill="none" xmlns="http://www.w3.org/2000/svg">
<path d="M33.5417 20.125H20.125V33.5417H33.5417V20.125ZM127.458 46.9583H140.875V87.2083H127.458V60.375H60.375V127.458H87.2083V140.875H46.9583V46.9583H127.458ZM46.9583 20.125H60.375V33.5417H46.9583V20.125ZM33.5417 46.9583H20.125V60.375H33.5417V46.9583ZM20.125 73.7917H33.5417V87.2083H20.125V73.7917ZM33.5417 100.625H20.125V114.042H33.5417V100.625ZM73.7917 20.125H87.2083V33.5417H73.7917V20.125ZM114.042 20.125H100.625V33.5417H114.042V20.125ZM100.625 114.042V100.625H140.875V114.042H127.458V127.458H114.042V140.875H100.625V114.042ZM127.458 127.458V140.875H140.875V127.458H127.458Z" fill="#EFEFEF"/>
</svg>
