<svg width="30" height="30" viewBox="0 0 30 30" fill="none" xmlns="http://www.w3.org/2000/svg">
<g clip-path="url(#clip0_73_87)">
<path d="M0.407471 14.5563C0.407471 7.86019 0.407471 4.51219 2.48766 2.432C4.56786 0.351807 7.91585 0.351807 14.6119 0.351807H15.7956C22.4917 0.351807 25.8397 0.351807 27.9199 2.432C30.0001 4.51219 30.0001 7.86019 30.0001 14.5563V15.74C30.0001 22.436 30.0001 25.784 27.9199 27.8642C25.8397 29.9444 22.4917 29.9444 15.7956 29.9444H14.6119C7.91585 29.9444 4.56786 29.9444 2.48766 27.8642C0.407471 25.784 0.407471 22.436 0.407471 15.74V14.5563Z" fill="#0077FF"/>
<path d="M16.1533 21.6709C9.40864 21.6709 5.56166 17.0471 5.40137 9.35303H8.77986C8.89083 15.0003 11.3815 17.3923 13.3543 17.8856V9.35303H16.5356V14.2235C18.4838 14.0139 20.5304 11.7944 21.2209 9.35303H24.4022C23.872 12.3616 21.6525 14.5811 20.0742 15.4935C21.6525 16.2333 24.1803 18.1692 25.1421 21.6709H21.6402C20.888 19.3282 19.014 17.5156 16.5356 17.269V21.6709H16.1533Z" fill="white"/>
</g>
<defs>
<clipPath id="clip0_73_87">
<rect width="29.5926" height="29.5926" fill="white" transform="translate(0.407471 0.351807)"/>
</clipPath>
</defs>
</svg>
