<svg width="30" height="30" viewBox="0 0 30 30" fill="none" xmlns="http://www.w3.org/2000/svg">
<g clip-path="url(#clip0_92_1721)">
<path d="M0.296875 14.5565C0.296875 7.86043 0.296875 4.51244 2.37707 2.43224C4.45726 0.352051 7.80526 0.352051 14.5013 0.352051H15.685C22.3811 0.352051 25.7291 0.352051 27.8093 2.43224C29.8895 4.51244 29.8895 7.86043 29.8895 14.5565V15.7402C29.8895 22.4363 29.8895 25.7842 27.8093 27.8645C25.7291 29.9446 22.3811 29.9446 15.685 29.9446H14.5013C7.80526 29.9446 4.45726 29.9446 2.37707 27.8645C0.296875 25.7842 0.296875 22.4363 0.296875 15.7402V14.5565Z" fill="#0077FF"/>
<path d="M16.0429 21.6709C9.29829 21.6709 5.45131 17.0471 5.29102 9.35303H8.6695C8.78048 15.0003 11.2711 17.3923 13.244 17.8856V9.35303H16.4253V14.2235C18.3735 14.0139 20.42 11.7944 21.1105 9.35303H24.2918C23.7616 12.3616 21.5422 14.5811 19.9639 15.4935C21.5422 16.2333 24.07 18.1692 25.0317 21.6709H21.5298C20.7777 19.3282 18.9037 17.5156 16.4253 17.269V21.6709H16.0429Z" fill="white"/>
</g>
<defs>
<clipPath id="clip0_92_1721">
<rect width="29.5926" height="29.5926" fill="white" transform="translate(0.296875 0.352051)"/>
</clipPath>
</defs>
</svg>
