<svg width="68" height="45" viewBox="0 0 68 45" fill="none" xmlns="http://www.w3.org/2000/svg">
<path d="M38.6152 33.3639C37.1166 35.2912 36.7553 37.0265 33.0357 37.573C27.8282 38.338 27.4562 39.8686 25.2244 42.5471L24.4805 44.8429C26.3403 45.2256 28.2001 42.5471 31.5478 41.3992C35.8408 39.9271 45.0626 41.6543 49.4022 42.5471C51.51 42.9297 55.8023 43.733 56.0976 43.695C59.0733 43.3124 59.4453 42.5471 60.1892 41.0165C61.4291 38.4656 64.6528 34.5116 65.3967 32.9811C66.9795 29.7247 65.3967 26.4762 65.7687 24.1804C66.6366 22.0121 68.0005 18.7469 68.0005 16.9102C68.0005 14.6144 66.8846 12.3185 66.5126 11.5532C65.7687 10.0227 66.1406 6.19627 65.7687 6.19627C64.6528 6.19627 63.6154 10.5669 64.2808 11.9359C65.0247 13.4664 65.1487 16.5276 65.0247 18.0581C64.5288 19.3336 63.9088 21.5019 63.1649 19.9713C62.4863 18.5752 60.1892 13.8491 58.3294 11.9359C57.5854 10.788 58.7013 8.87475 58.3294 7.34419C57.9259 5.68407 56.8415 3.90043 55.3536 3.13515C54.6097 2.75251 55.9094 5.04379 56.0976 5.43099C56.4695 6.19627 56.4695 6.96155 56.4695 8.49211C56.4695 10.0227 56.1914 9.9273 55.3536 9.64003C54.2377 9.25739 48.6582 4.28307 48.2863 3.51779C47.4381 1.77268 47.9143 1.22186 47.9143 0.074029C47.9143 -0.308611 47.0173 0.861602 46.7984 1.98723C46.4265 3.90039 47.5556 5.25668 48.2863 6.19627C49.7741 8.10943 54.2377 10.0226 56.8415 13.8491C59.5564 17.8389 61.3518 22.0766 61.6771 23.4151C62.049 24.9456 63.5369 28.772 61.6771 32.5984C60.9331 34.129 56.4695 38.1467 55.7256 38.7207C54.2377 39.8686 52.3779 40.6339 51.262 40.2512C50.2034 39.8882 49.6374 39.2047 49.4022 38.7207C49.0302 37.9554 49.4022 36.8075 49.4022 36.8075L50.5181 34.5116L55.3536 26.8588C56.8415 24.9456 56.4695 22.7263 56.4695 21.5019C56.4695 19.9713 54.4539 17.5152 53.8658 16.9102C52.3779 15.3796 49.0302 12.7012 48.2863 11.9359C47.11 10.7259 46.2777 9.3339 45.6825 9.64001C45.0874 9.94612 45.6825 11.2981 46.0545 11.9359C47.1704 13.4664 49.8485 16.8336 51.634 18.0581C54.9817 20.3539 53.6601 24.2207 53.4938 24.563L52.0059 27.6241C51.634 28.3894 50.5181 30.6852 48.6582 31.0679C47.5424 31.4505 46.4265 29.92 46.0545 28.0068L45.3106 24.563C45.013 23.3385 43.7204 21.6902 43.0788 21.8845C42.7068 21.8845 43.4507 23.0324 43.7204 23.7977C44.5666 25.7109 43.8227 28.0697 43.8227 28.772C43.8227 29.9199 44.6906 31.7056 45.3106 32.5984C46.0545 34.129 47.1704 34.5116 46.0545 36.0422C44.9386 37.5727 43.0587 38.3243 41.9629 37.5728C39.7311 36.0422 40.289 34.8943 40.847 33.7464C41.2189 32.9811 41.2189 31.8331 40.475 30.3026C38.6152 27.2414 40.847 24.1804 40.103 24.9456C38.7272 26.3609 38.5569 26.6563 38.2432 27.6243C37.8712 28.772 40.103 31.4505 38.6152 33.3639Z" fill="#EFEFEF"/>
<path d="M29.3848 33.3639C30.8834 35.2912 31.2447 37.0265 34.9643 37.573C40.1718 38.338 40.5438 39.8686 42.7756 42.5471L43.5195 44.8429C41.6597 45.2256 39.7999 42.5471 36.4522 41.3992C32.1592 39.9271 22.9374 41.6543 18.5978 42.5471C16.49 42.9297 12.1977 43.733 11.9024 43.695C8.92671 43.3124 8.55474 42.5471 7.81081 41.0165C6.57093 38.4656 3.34722 34.5116 2.60329 32.9811C1.02053 29.7247 2.60329 26.4762 2.23132 24.1804C1.3634 22.0121 -0.000469208 18.7469 -0.000469208 16.9102C-0.000469208 14.6144 1.11543 12.3185 1.48739 11.5532C2.23132 10.0227 1.85936 6.19627 2.23132 6.19627C3.34722 6.19627 4.38458 10.5669 3.71919 11.9359C2.97526 13.4664 2.85127 16.5276 2.97526 18.0581C3.47121 19.3336 4.09115 21.5019 4.83509 19.9713C5.51366 18.5752 7.81081 13.8491 9.67064 11.9359C10.4146 10.788 9.29868 8.87475 9.67064 7.34419C10.0741 5.68407 11.1585 3.90043 12.6464 3.13515C13.3903 2.75251 12.0906 5.04379 11.9024 5.43099C11.5305 6.19627 11.5305 6.96155 11.5305 8.49211C11.5305 10.0227 11.8086 9.9273 12.6464 9.64003C13.7623 9.25739 19.3418 4.28307 19.7137 3.51779C20.5619 1.77268 20.0857 1.22186 20.0857 0.074029C20.0857 -0.308611 20.9827 0.861602 21.2016 1.98723C21.5735 3.90039 20.4444 5.25668 19.7137 6.19627C18.2259 8.10943 13.7623 10.0226 11.1585 13.8491C8.44355 17.8389 6.64823 22.0766 6.32295 23.4151C5.95098 24.9456 4.46315 28.772 6.32295 32.5984C7.06688 34.129 11.5305 38.1467 12.2744 38.7207C13.7623 39.8686 15.6221 40.6339 16.738 40.2512C17.7966 39.8882 18.3626 39.2047 18.5978 38.7207C18.9698 37.9554 18.5978 36.8075 18.5978 36.8075L17.4819 34.5116L12.6464 26.8588C11.1585 24.9456 11.5305 22.7263 11.5305 21.5019C11.5305 19.9713 13.5461 17.5152 14.1342 16.9102C15.6221 15.3796 18.9698 12.7012 19.7137 11.9359C20.89 10.7259 21.7223 9.3339 22.3175 9.64001C22.9126 9.94612 22.3175 11.2981 21.9455 11.9359C20.8296 13.4664 18.1515 16.8336 16.366 18.0581C13.0183 20.3539 14.3399 24.2207 14.5062 24.563L15.9941 27.6241C16.366 28.3894 17.4819 30.6852 19.3418 31.0679C20.4576 31.4505 21.5735 29.92 21.9455 28.0068L22.6894 24.563C22.987 23.3385 24.2796 21.6902 24.9212 21.8845C25.2932 21.8845 24.5493 23.0324 24.2796 23.7977C23.4334 25.7109 24.1773 28.0697 24.1773 28.772C24.1773 29.9199 23.3094 31.7056 22.6894 32.5984C21.9455 34.129 20.8296 34.5116 21.9455 36.0422C23.0614 37.5727 24.9413 38.3243 26.0371 37.5728C28.2689 36.0422 27.711 34.8943 27.153 33.7464C26.7811 32.9811 26.7811 31.8331 27.525 30.3026C29.3848 27.2414 27.153 24.1804 27.897 24.9456C29.2728 26.3609 29.4431 26.6563 29.7568 27.6243C30.1288 28.772 27.897 31.4505 29.3848 33.3639Z" fill="#EFEFEF"/>
</svg>
